0
SECTION
2
HEADER
9
$INSUNITS
70
5
9
$ACADVER
1
AC1014
9
$HANDSEED
5
FFFF
0
ENDSEC
0
SECTION
2
TABLES
0
TABLE
2
VPORT
5
8
100
AcDbSymbolTable
0
ENDTAB
0
TABLE
2
LTYPE
5
5
100
AcDbSymbolTable
0
LTYPE
5
14
100
AcDbSymbolTableRecord
100
AcDbLinetypeTableRecord
2
BYBLOCK
70
0
0
LTYPE
5
15
100
AcDbSymbolTableRecord
100
AcDbLinetypeTableRecord
2
BYLAYER
70
0
0
ENDTAB
0
TABLE
2
LAYER
5
2
100
AcDbSymbolTable
70
2
0
LAYER
5
50
100
AcDbSymbolTableRecord
100
AcDbLayerTableRecord
2
0
70
0
6
CONTINUOUS
0
ENDTAB
0
TABLE
2
STYLE
5
3
100
AcDbSymbolTable
70
1
0
STYLE
5
11
100
AcDbSymbolTableRecord
100
AcDbTextStyleTableRecord
2
STANDARD
70
0
0
ENDTAB
0
TABLE
2
VIEW
5
6
100
AcDbSymbolTable
70
0
0
ENDTAB
0
TABLE
2
UCS
5
7
100
AcDbSymbolTable
70
0
0
ENDTAB
0
TABLE
2
APPID
5
9
100
AcDbSymbolTable
70
2
0
APPID
5
12
100
AcDbSymbolTableRecord
100
AcDbRegAppTableRecord
2
ACAD
70
0
0
ENDTAB
0
TABLE
2
DIMSTYLE
5
A
100
AcDbSymbolTable
70
1
0
ENDTAB
0
TABLE
2
BLOCK_RECORD
5
1
100
AcDbSymbolTable
70
1
0
BLOCK_RECORD
5
1F
100
AcDbSymbolTableRecord
100
AcDbBlockTableRecord
2
*MODEL_SPACE
0
BLOCK_RECORD
5
1B
100
AcDbSymbolTableRecord
100
AcDbBlockTableRecord
2
*PAPER_SPACE
0
ENDTAB
0
ENDSEC
0
SECTION
2
BLOCKS
0
BLOCK
5
20
100
AcDbEntity
100
AcDbBlockBegin
2
*MODEL_SPACE
0
ENDBLK
5
21
100
AcDbEntity
100
AcDbBlockEnd
0
BLOCK
5
1C
100
AcDbEntity
100
AcDbBlockBegin
2
*PAPER_SPACE
0
ENDBLK
5
1D
100
AcDbEntity
100
AcDbBlockEnd
0
ENDSEC
0
SECTION
2
ENTITIES
0
CIRCLE
5
100
100
AcDbEntity
8
0
100
AcDbCircle
10
13.999999999999991
20
-8
30
0
40
5.2000000000000011
210
0
220
-0
230
1
0
LWPOLYLINE
5
101
100
AcDbEntity
8
0
100
AcDbPolyline
90
4
70
1
43
0.0
10
19.400000000000002
20
-9.1249787206322601
10
19.400000000000002
20
-6.8749787206322601
10
20.700000000000003
20
-6.8749787206322601
10
20.700000000000003
20
-9.1249787206322601
0
LWPOLYLINE
5
102
100
AcDbEntity
8
0
100
AcDbPolyline
90
4
70
1
43
0.0
10
12.874978720632265
20
-2.5999999999999934
10
12.874978720632265
20
-1.2999999999999936
10
15.124978720632265
20
-1.299999999999998
10
15.124978720632267
20
-2.599999999999997
0
LWPOLYLINE
5
103
100
AcDbEntity
8
0
100
AcDbPolyline
90
4
70
1
43
0.0
10
9.5477091190634997
20
-3.2648664065888733
10
10.113394544012744
20
-3.8305518315381217
10
9.8305518315381253
20
-4.1133945440127349
10
9.2648664065888813
20
-3.5477091190634855
0
LWPOLYLINE
5
104
100
AcDbEntity
8
0
100
AcDbPolyline
90
4
70
1
43
0.0
10
18.735133593411113
20
-3.5477091190634962
10
18.169448168461876
20
-4.1133945440127455
10
17.886605455987265
20
-3.8305518315381226
10
18.452290880936506
20
-3.2648664065888822
0
LWPOLYLINE
5
105
100
AcDbEntity
8
0
100
AcDbPolyline
90
4
70
1
43
0.0
10
18.452290880936484
20
-12.735133593411112
10
17.886605455987251
20
-12.16944816846188
10
18.169448168461876
20
-11.886605455987262
10
18.73513359341111
20
-12.452290880936506
0
LWPOLYLINE
5
106
100
AcDbEntity
8
0
100
AcDbPolyline
90
4
70
1
43
0.0
10
9.2648664065888742
20
-12.452290880936486
10
9.8305518315381235
20
-11.886605455987256
10
10.113394544012737
20
-12.169448168461873
10
9.5477091190634855
20
-12.735133593411112
0
CIRCLE
5
107
100
AcDbEntity
8
0
100
AcDbCircle
10
13.999999999999991
20
-8
30
0
40
7
210
0
220
0
230
1
0
LWPOLYLINE
5
108
100
AcDbEntity
8
0
100
AcDbPolyline
90
4
70
1
43
0.0
10
-6.8203611253038794
20
3.4404487237799373
10
-6.24931404924153
20
4.0007211904608031
10
-6.5294502825819709
20
4.2862447284919698
10
-7.1004973586442954
20
3.7259722618110791
0
LWPOLYLINE
5
109
100
AcDbEntity
8
0
100
AcDbPolyline
90
4
70
1
43
0.0
10
-8.8212773471686212
20
7.9948445810128952
10
-8.0213136268060303
20
7.9872257816546117
10
-8.0175042271268993
20
8.3872076418359089
10
-8.8174679474894919
20
8.3948264411941569
0
LWPOLYLINE
5
110
100
AcDbEntity
8
0
100
AcDbPolyline
90
4
70
1
43
0.0
10
-7.0156945813780043
20
12.630150204936964
10
-6.4554221146971393
20
12.059103128874614
10
-6.1698985766659717
20
12.339239362215055
10
-6.7301710433468633
20
12.91028643827738
0
LWPOLYLINE
5
111
100
AcDbEntity
8
0
100
AcDbPolyline
90
4
70
1
43
0.0
10
-2.4612987241450464
20
14.631066426801709
10
-2.4689175235033303
20
13.831102706439118
10
-2.0689356633220339
20
13.827293306759987
10
-2.0613168639637856
20
14.62725702712258
0
LWPOLYLINE
5
112
100
AcDbEntity
8
0
100
AcDbPolyline
90
4
70
1
43
0.0
10
2.1740068997790241
20
12.825483661011091
10
1.6029598237166747
20
12.265211194330227
10
1.8830960570571154
20
11.97968765629906
10
2.4541431331194405
20
12.53996012297995
0
LWPOLYLINE
5
113
100
AcDbEntity
8
0
100
AcDbPolyline
90
4
70
1
43
0.0
10
4.1749231216437694
20
8.271087803778137
10
3.3749594012811786
20
8.2787066031364205
10
3.3711500016020475
20
7.8787247429551233
10
4.1711137219646401
20
7.8711059435968753
0
LWPOLYLINE
5
114
100
AcDbEntity
8
0
100
AcDbPolyline
90
4
70
1
43
0.0
10
2.3693403558531507
20
3.6357821798540648
10
1.8090678891722858
20
4.2068292559164133
10
1.5235443511411177
20
3.9266930225759724
10
2.0838168178220098
20
3.3556459465136479
0
LWPOLYLINE
5
115
100
AcDbEntity
8
0
100
AcDbPolyline
90
4
70
1
43
0.0
10
-2.1774367020215237
20
2.4348296783519103
10
-2.5774185622028201
20
2.4386390780310414
10
-2.585037361561068
20
1.6386753576684487
10
-2.1850555013798072
20
1.6348659579893194
0
LWPOLYLINE
5
116
100
AcDbEntity
8
0
100
AcDbPolyline
90
12
70
1
43
0.0
10
1.5543070936389514
20
10.104670082209568
42
0.020048654378216894
10
1.3839192193109215
20
10.408913640103462
10
-6.4495295980811242
20
6.7561164667884732
42
0.020048654378216547
10
-6.3259887256606584
20
6.4300277931434895
10
-7.823687538230776
20
5.7316393672324111
10
-7.6546402335345087
20
5.3691162524177578
10
-6.1526258558049065
20
6.0695170594120116
42
0.020090088066203212
10
-5.9746520961773335
20
5.7688108579271731
10
1.8349938202965625
20
9.4105085562579998
42
0.020090088066202865
10
1.7190388331756097
20
9.740134586312049
10
3.221053210905211
20
10.440535393306297
10
3.052005906209077
20
10.803058508120639
0
CIRCLE
5
117
100
AcDbEntity
8
0
100
AcDbCircle
10
-2.3999999999999959
20
8
30
0
40
6.9999999999999991
210
0
220
0
230
1
0
LWPOLYLINE
5
118
100
AcDbEntity
8
0
100
AcDbPolyline
90
4
70
1
43
0.0
10
-7
20
-2
10
2
20
-2
10
2
20
-13.5
10
-7
20
-5
0
LWPOLYLINE
5
119
100
AcDbEntity
8
0
100
AcDbPolyline
90
4
70
1
43
0.0
10
-15.343118504078575
20
-11.379611874159487
10
-8.8000001311302185
20
-5.2000000774860382
10
-0.90382950204747914
20
-13.560651331808938
10
-13.283247905187427
20
-13.560651331808938
0
LWPOLYLINE
5
120
100
AcDbEntity
8
0
100
AcDbPolyline
90
4
70
1
43
0.0
10
-18
20
-13.5
10
-18
20
-2
10
-9
20
-2
10
-9
20
-5
0
LINE
5
121
100
AcDbEntity
8
0
100
AcDbLine
10
-17.700000000000003
20
11.5
30
0
11
-17.700000000000003
21
15
31
0
0
LINE
5
122
100
AcDbEntity
8
0
100
AcDbLine
10
-17.700000000000003
20
15
30
0
11
-16.950000000000003
21
15
31
0
0
LINE
5
123
100
AcDbEntity
8
0
100
AcDbLine
10
-16.950000000000003
20
15
30
0
11
-16.950000000000003
21
14.225669229977715
31
0
0
LINE
5
124
100
AcDbEntity
8
0
100
AcDbLine
10
-16.950000000000003
20
14.225669229977715
30
0
11
-17.200000196695328
21
14.225669229977715
31
0
0
SPLINE
5
125
100
AcDbEntity
8
0
100
AcDbSpline
70
4
71
2
72
6
73
3
74
0
42
0.000000001
43
0.0000000001
44
0.0000000001
40
0
40
0
40
0
40
2.7494996984654545
40
2.7494996984654545
40
2.7494996984654545
41
1
41
8.9999999999996803
41
1
10
-17.200000196695328
20
14.225669229977715
30
0
10
-17.200000196695328
20
12.653138241581168
30
0
10
-16.950000000000003
20
11.5
30
0
0
ARC
5
126
100
AcDbEntity
8
0
100
AcDbCircle
10
-6.5836436580509474
20
11.499999999999996
30
0
40
10.366356341949013
210
0
220
0
230
1
100
AcDbArc
50
180
51
246.60373511977866
0
LINE
5
127
100
AcDbEntity
8
0
100
AcDbLine
10
-10.700000000000001
20
1.9859601496334238
30
0
11
-10.699999999999999
21
1.5859601496334239
31
0
0
ARC
5
128
100
AcDbEntity
8
0
100
AcDbCircle
10
-7.1794152746673934
20
11.5
30
0
40
10.520584725332609
210
0
220
0
230
1
100
AcDbArc
50
180
51
250.44948921744663
0
LINE
5
129
100
AcDbEntity
8
0
100
AcDbLine
10
-13.700000000000001
20
11.5
30
0
11
-13.700000000000001
21
15
31
0
0
LINE
5
130
100
AcDbEntity
8
0
100
AcDbLine
10
-13.700000000000001
20
15
30
0
11
-12.950000000000001
21
15
31
0
0
LINE
5
131
100
AcDbEntity
8
0
100
AcDbLine
10
-12.950000000000001
20
15
30
0
11
-12.950000000000001
21
14.225669229977715
31
0
0
LINE
5
132
100
AcDbEntity
8
0
100
AcDbLine
10
-12.950000000000001
20
14.225669229977715
30
0
11
-13.200000196695328
21
14.225669229977715
31
0
0
SPLINE
5
133
100
AcDbEntity
8
0
100
AcDbSpline
70
4
71
2
72
6
73
3
74
0
42
0.000000001
43
0.0000000001
44
0.0000000001
40
0
40
0
40
0
40
2.7494996984654545
40
2.7494996984654545
40
2.7494996984654545
41
1
41
8.9999999999996803
41
1
10
-13.200000196695328
20
14.225669229977715
30
0
10
-13.200000196695328
20
12.653138241581168
30
0
10
-12.950000000000001
20
11.5
30
0
0
ARC
5
134
100
AcDbEntity
8
0
100
AcDbCircle
10
-2.583643658050947
20
11.499999999999996
30
0
40
10.366356341949079
210
0
220
0
230
1
100
AcDbArc
50
180
51
246.60373511977866
0
LINE
5
135
100
AcDbEntity
8
0
100
AcDbLine
10
-6.7000000000000002
20
1.9859601496334238
30
0
11
-6.7000000000000002
21
1.5859601496334239
31
0
0
ARC
5
136
100
AcDbEntity
8
0
100
AcDbCircle
10
-3.1794152746673934
20
11.5
30
0
40
10.520584725332608
210
0
220
0
230
1
100
AcDbArc
50
180
51
250.44948921744663
0
LINE
5
137
100
AcDbEntity
8
0
100
AcDbLine
10
-15.033333333333335
20
11.5
30
0
11
-15.033333333333335
21
15
31
0
0
LINE
5
138
100
AcDbEntity
8
0
100
AcDbLine
10
-15.033333333333335
20
15
30
0
11
-14.283333333333335
21
15
31
0
0
LINE
5
139
100
AcDbEntity
8
0
100
AcDbLine
10
-14.283333333333335
20
15
30
0
11
-14.283333333333335
21
14.225669229977715
31
0
0
LINE
5
140
100
AcDbEntity
8
0
100
AcDbLine
10
-14.283333333333335
20
14.225669229977715
30
0
11
-14.533333530028662
21
14.225669229977715
31
0
0
SPLINE
5
141
100
AcDbEntity
8
0
100
AcDbSpline
70
4
71
2
72
6
73
3
74
0
42
0.000000001
43
0.0000000001
44
0.0000000001
40
0
40
0
40
0
40
2.7494996984654545
40
2.7494996984654545
40
2.7494996984654545
41
1
41
8.9999999999996803
41
1
10
-14.533333530028662
20
14.225669229977715
30
0
10
-14.533333530028663
20
12.653138241581168
30
0
10
-14.283333333333335
20
11.5
30
0
0
ARC
5
142
100
AcDbEntity
8
0
100
AcDbCircle
10
-3.9169769913842805
20
11.499999999999996
30
0
40
10.366356341949032
210
0
220
0
230
1
100
AcDbArc
50
180
51
246.60373511977866
0
LINE
5
143
100
AcDbEntity
8
0
100
AcDbLine
10
-8.0333333333333332
20
1.9859601496334238
30
0
11
-8.0333333333333332
21
1.5859601496334239
31
0
0
ARC
5
144
100
AcDbEntity
8
0
100
AcDbCircle
10
-4.5127486080007264
20
11.5
30
0
40
10.520584725332608
210
0
220
0
230
1
100
AcDbArc
50
180
51
250.44948921744663
0
LINE
5
145
100
AcDbEntity
8
0
100
AcDbLine
10
-16.366666666666667
20
11.5
30
0
11
-16.366666666666667
21
15
31
0
0
LINE
5
146
100
AcDbEntity
8
0
100
AcDbLine
10
-16.366666666666667
20
15
30
0
11
-15.616666666666667
21
15
31
0
0
LINE
5
147
100
AcDbEntity
8
0
100
AcDbLine
10
-15.616666666666667
20
15
30
0
11
-15.616666666666667
21
14.225669229977715
31
0
0
LINE
5
148
100
AcDbEntity
8
0
100
AcDbLine
10
-15.616666666666667
20
14.225669229977715
30
0
11
-15.866666863361994
21
14.225669229977715
31
0
0
SPLINE
5
149
100
AcDbEntity
8
0
100
AcDbSpline
70
4
71
2
72
6
73
3
74
0
42
0.000000001
43
0.0000000001
44
0.0000000001
40
0
40
0
40
0
40
2.7494996984654545
40
2.7494996984654545
40
2.7494996984654545
41
1
41
8.9999999999996803
41
1
10
-15.866666863361994
20
14.225669229977715
30
0
10
-15.866666863361992
20
12.653138241581168
30
0
10
-15.616666666666667
20
11.5
30
0
0
ARC
5
150
100
AcDbEntity
8
0
100
AcDbCircle
10
-5.2503103247176135
20
11.499999999999996
30
0
40
10.366356341949073
210
0
220
0
230
1
100
AcDbArc
50
180
51
246.60373511977866
0
LINE
5
151
100
AcDbEntity
8
0
100
AcDbLine
10
-9.3666666666666671
20
1.9859601496334238
30
0
11
-9.3666666666666671
21
1.5859601496334239
31
0
0
ARC
5
152
100
AcDbEntity
8
0
100
AcDbCircle
10
-5.8460819413340595
20
11.5
30
0
40
10.520584725332608
210
0
220
0
230
1
100
AcDbArc
50
180
51
250.44948921744657
0
LWPOLYLINE
5
153
100
AcDbEntity
8
0
100
AcDbPolyline
90
2
70
1
43
0.0
10
18.049529598081126
20
6.7561164667884732
42
0.89178855801137979
10
10.216080780689076
20
10.408913640103462
0
LWPOLYLINE
5
154
100
AcDbEntity
8
0
100
AcDbPolyline
90
2
70
1
43
0.0
10
9.7650061797034393
20
9.4105085562580015
42
0.87049590331265858
10
17.574652096177335
20
5.7688108579271793
0
LWPOLYLINE
5
155
100
AcDbEntity
8
0
100
AcDbPolyline
90
4
70
1
43
0.0
10
17.849314049241531
20
4.0007211904608031
10
18.420361125303881
20
3.4404487237799377
10
18.700497358644299
20
3.725972261811084
10
18.129450282581974
20
4.2862447284919725
0
LWPOLYLINE
5
156
100
AcDbEntity
8
0
100
AcDbPolyline
90
4
70
1
43
0.0
10
20.417467947489488
20
8.3948264411941622
10
19.617504227126901
20
8.3872076418359107
10
19.621313626806035
20
7.9872257816546144
10
20.421277347168623
20
7.9948445810128987
0
LWPOLYLINE
5
157
100
AcDbEntity
8
0
100
AcDbPolyline
90
4
70
1
43
0.0
10
18.330171043346862
20
12.910286438277385
10
17.76989857666597
20
12.339239362215061
10
18.055422114697141
20
12.05910312887462
10
18.615694581378001
20
12.630150204936967
0
LWPOLYLINE
5
158
100
AcDbEntity
8
0
100
AcDbPolyline
90
4
70
1
43
0.0
10
13.66131686396378
20
14.62725702712258
10
13.668935663322028
20
13.827293306759987
10
14.068917523503325
20
13.83110270643912
10
14.061298724145042
20
14.631066426801709
0
LWPOLYLINE
5
159
100
AcDbEntity
8
0
100
AcDbPolyline
90
4
70
1
43
0.0
10
9.1458568668805569
20
12.539960122979947
10
9.7169039429428796
20
11.97968765629906
10
9.9970401762833223
20
12.265211194330227
10
9.4259931002209729
20
12.825483661011093
0
LWPOLYLINE
5
160
100
AcDbEntity
8
0
100
AcDbPolyline
90
4
70
1
43
0.0
10
7.4288862780353613
20
7.8711059435968709
10
8.2288499983979531
20
7.878724742955117
10
8.2250405987188184
20
8.2787066031364152
10
7.4250768783562284
20
8.2710878037781317
0
LWPOLYLINE
5
161
100
AcDbEntity
8
0
100
AcDbPolyline
90
4
70
1
43
0.0
10
9.5161831821779934
20
3.3556459465136461
10
10.076455648858882
20
3.9266930225759706
10
9.7909321108277112
20
4.2068292559164098
10
9.2306596441468507
20
3.6357821798540622
0
LWPOLYLINE
5
162
100
AcDbEntity
8
0
100
AcDbPolyline
90
4
70
1
43
0.0
10
14.185037361561069
20
1.6386753576684494
10
14.177418562202821
20
2.438639078031041
10
13.777436702021523
20
2.4348296783519094
10
13.785055501379807
20
1.6348659579893194
0
LWPOLYLINE
5
163
100
AcDbEntity
8
0
100
AcDbPolyline
90
4
70
1
43
0.0
10
19.254640233534509
20
5.3691162524177587
10
19.423687538230777
20
5.731639367232412
10
8.5479940937909227
20
10.803058508120639
10
8.3789467890947886
20
10.440535393306297
0
CIRCLE
5
164
100
AcDbEntity
8
0
100
AcDbCircle
10
13.999999999999996
20
8
30
0
40
6.9999999999999991
210
0
220
0
230
1
0
LWPOLYLINE
5
165
100
AcDbEntity
8
0
100
AcDbPolyline
90
4
70
1
43
0.0
10
-13.999791894693061
20
0.9000000000000038
10
21.000208105306939
20
0.90000000000000391
10
21.000208105306939
20
0.10000000000000386
10
-13.999791894693061
20
0.10000000000000386
0
LWPOLYLINE
5
166
100
AcDbEntity
8
0
100
AcDbPolyline
90
4
70
1
43
0.0
10
6.5
20
15
10
6.5
20
2
10
5.7999999999999998
20
2
10
5.7999999999999998
20
15
0
LWPOLYLINE
5
167
100
AcDbEntity
8
0
100
AcDbPolyline
90
4
70
1
43
0.0
10
4.7999999999999998
20
15
10
5.5
20
15
10
5.5
20
2
10
4.7999999999999998
20
2
0
LWPOLYLINE
5
168
100
AcDbEntity
8
0
100
AcDbPolyline
90
4
70
1
43
0.0
10
3.5
20
-15
10
2.7999999999999998
20
-15
10
2.7999999999999998
20
-2
10
3.5
20
-2
0
LWPOLYLINE
5
169
100
AcDbEntity
8
0
100
AcDbPolyline
90
4
70
1
43
0.0
10
4.5
20
-2
10
4.5
20
-15
10
3.7999999999999998
20
-15
10
3.7999999999999998
20
-2
0
LWPOLYLINE
5
170
100
AcDbEntity
8
0
100
AcDbPolyline
90
4
70
1
43
0.0
10
5.5
20
-15
10
4.7999999999999998
20
-15
10
4.7999999999999998
20
-2
10
5.5
20
-2
0
LWPOLYLINE
5
171
100
AcDbEntity
8
0
100
AcDbPolyline
90
4
70
1
43
0.0
10
6.5
20
-2
10
6.5
20
-15
10
5.7999999999999998
20
-15
10
5.7999999999999998
20
-2
0
CIRCLE
5
172
100
AcDbEntity
8
0
100
AcDbCircle
10
13.999999999999991
20
-8
30
0
40
5.2000000000000011
210
0
220
-0
230
1
0
LWPOLYLINE
5
173
100
AcDbEntity
8
0
100
AcDbPolyline
90
4
70
1
43
0.0
10
19.400000000000002
20
-6.8749787206322601
10
19.400000000000002
20
-9.1249787206322601
10
20.700000000000003
20
-9.1249787206322601
10
20.700000000000003
20
-6.8749787206322601
0
LWPOLYLINE
5
174
100
AcDbEntity
8
0
100
AcDbPolyline
90
4
70
1
43
0.0
10
12.874978720632265
20
-1.2999999999999934
10
12.874978720632265
20
-2.5999999999999939
10
15.124978720632267
20
-2.5999999999999974
10
15.124978720632265
20
-1.2999999999999976
0
LWPOLYLINE
5
175
100
AcDbEntity
8
0
100
AcDbPolyline
90
4
70
1
43
0.0
10
10.113394544012744
20
-3.8305518315381217
10
9.5477091190634997
20
-3.2648664065888728
10
9.2648664065888813
20
-3.5477091190634855
10
9.8305518315381253
20
-4.1133945440127349
0
LWPOLYLINE
5
176
100
AcDbEntity
8
0
100
AcDbPolyline
90
4
70
1
43
0.0
10
18.169448168461876
20
-4.1133945440127455
10
18.735133593411113
20
-3.5477091190634962
10
18.452290880936506
20
-3.2648664065888817
10
17.886605455987265
20
-3.8305518315381231
0
LWPOLYLINE
5
177
100
AcDbEntity
8
0
100
AcDbPolyline
90
4
70
1
43
0.0
10
17.886605455987251
20
-12.16944816846188
10
18.452290880936484
20
-12.735133593411112
10
18.73513359341111
20
-12.452290880936506
10
18.169448168461876
20
-11.886605455987262
0
LWPOLYLINE
5
178
100
AcDbEntity
8
0
100
AcDbPolyline
90
4
70
1
43
0.0
10
9.8305518315381235
20
-11.886605455987256
10
9.2648664065888742
20
-12.452290880936486
10
9.5477091190634855
20
-12.735133593411112
10
10.113394544012737
20
-12.169448168461873
0
CIRCLE
5
179
100
AcDbEntity
8
0
100
AcDbCircle
10
13.999999999999991
20
-8
30
0
40
7
210
0
220
0
230
1
0
CIRCLE
5
180
100
AcDbEntity
8
0
100
AcDbCircle
10
14
20
-8.0000000000000018
30
0
40
0.67500000000000071
210
0
220
-0
230
1
0
LWPOLYLINE
5
181
100
AcDbEntity
8
0
100
AcDbPolyline
90
16
70
1
43
0.0
10
14.700000000000001
20
-8.9746794344808993
42
0.081465292110807275
10
14.974679434480896
20
-8.7000000000000028
10
18.724679434480898
20
-8.6999999999999993
10
18.724679434480898
20
-8.25
10
17.724679434480898
20
-8.2499999999999947
10
17.724679434480898
20
-7.7500000000000107
10
18.724679434480898
20
-7.7500000000000018
10
18.724679434480898
20
-7.3000000000000025
10
14.974679434480898
20
-7.3000000000000025
42
1.1773809773568951
10
13.300000000000001
20
-8.9746794344808958
10
13.300000000000001
20
-12.724679434480896
10
13.75
20
-12.724679434480899
10
13.750000000000007
20
-11.724679434480899
10
14.249999999999991
20
-11.724679434480899
10
14.249999999999998
20
-12.724679434480899
10
14.699999999999998
20
-12.724679434480896
0
LWPOLYLINE
5
182
100
AcDbEntity
8
0
100
AcDbPolyline
90
4
70
1
43
0.0
10
21.000208105306939
20
-0.10000000000000386
10
21.000208105306935
20
-0.90000000000000391
10
-13.999791894693065
20
-0.9000000000000038
10
-13.999791894693061
20
-0.10000000000000386
0
ENDSEC
0
SECTION
2
OBJECTS
0
DICTIONARY
5
C
100
AcDbDictionary
3
ACAD_GROUP
350
D
3
ACAD_MLINESTYLE
350
17
0
DICTIONARY
5
D
100
AcDbDictionary
0
DICTIONARY
5
1A
330
C
100
AcDbDictionary
0
DICTIONARY
5
17
100
AcDbDictionary
0
ENDSEC
0
EOF
