0
SECTION
2
HEADER
9
$INSUNITS
70
5
9
$ACADVER
1
AC1014
9
$HANDSEED
5
FFFF
0
ENDSEC
0
SECTION
2
TABLES
0
TABLE
2
VPORT
5
8
100
AcDbSymbolTable
0
ENDTAB
0
TABLE
2
LTYPE
5
5
100
AcDbSymbolTable
0
LTYPE
5
14
100
AcDbSymbolTableRecord
100
AcDbLinetypeTableRecord
2
BYBLOCK
70
0
0
LTYPE
5
15
100
AcDbSymbolTableRecord
100
AcDbLinetypeTableRecord
2
BYLAYER
70
0
0
ENDTAB
0
TABLE
2
LAYER
5
2
100
AcDbSymbolTable
70
2
0
LAYER
5
50
100
AcDbSymbolTableRecord
100
AcDbLayerTableRecord
2
0
70
0
6
CONTINUOUS
0
ENDTAB
0
TABLE
2
STYLE
5
3
100
AcDbSymbolTable
70
1
0
STYLE
5
11
100
AcDbSymbolTableRecord
100
AcDbTextStyleTableRecord
2
STANDARD
70
0
0
ENDTAB
0
TABLE
2
VIEW
5
6
100
AcDbSymbolTable
70
0
0
ENDTAB
0
TABLE
2
UCS
5
7
100
AcDbSymbolTable
70
0
0
ENDTAB
0
TABLE
2
APPID
5
9
100
AcDbSymbolTable
70
2
0
APPID
5
12
100
AcDbSymbolTableRecord
100
AcDbRegAppTableRecord
2
ACAD
70
0
0
ENDTAB
0
TABLE
2
DIMSTYLE
5
A
100
AcDbSymbolTable
70
1
0
ENDTAB
0
TABLE
2
BLOCK_RECORD
5
1
100
AcDbSymbolTable
70
1
0
BLOCK_RECORD
5
1F
100
AcDbSymbolTableRecord
100
AcDbBlockTableRecord
2
*MODEL_SPACE
0
BLOCK_RECORD
5
1B
100
AcDbSymbolTableRecord
100
AcDbBlockTableRecord
2
*PAPER_SPACE
0
ENDTAB
0
ENDSEC
0
SECTION
2
BLOCKS
0
BLOCK
5
20
100
AcDbEntity
100
AcDbBlockBegin
2
*MODEL_SPACE
0
ENDBLK
5
21
100
AcDbEntity
100
AcDbBlockEnd
0
BLOCK
5
1C
100
AcDbEntity
100
AcDbBlockBegin
2
*PAPER_SPACE
0
ENDBLK
5
1D
100
AcDbEntity
100
AcDbBlockEnd
0
ENDSEC
0
SECTION
2
ENTITIES
0
LWPOLYLINE
5
100
100
AcDbEntity
8
0
100
AcDbPolyline
90
4
70
1
43
0.0
10
8.7596903348341701
20
-1.3560250502767861
10
8.835583237271095
20
-1.6462667897969641
10
8.0628425762398397
20
-1.8533220258789813
10
7.9851982808799882
20
-1.5635495706781311
0
LWPOLYLINE
5
101
100
AcDbEntity
8
0
100
AcDbPolyline
90
4
70
1
43
0.0
10
11.3034771397475
20
-5.8314591617859497
10
11.663330235530019
20
-5.1149327368289121
10
11.930601379441701
20
-5.2511903444408938
10
11.57156203528133
20
-5.9660964566996242
0
LWPOLYLINE
5
102
100
AcDbEntity
8
0
100
AcDbPolyline
90
4
70
1
43
0.0
10
16.697690672424205
20
-6.189910311825507
10
16.401656319079212
20
-5.4447472223977051
10
16.681124919583077
20
-5.3356724712753092
10
16.976489837433224
20
-6.0791504906567688
0
LWPOLYLINE
5
103
100
AcDbEntity
8
0
100
AcDbPolyline
90
4
70
1
43
0.0
10
20.551513523081148
20
-2.398594405859404
10
19.798055598931736
20
-2.1243581486970164
10
19.902363595387815
20
-1.8430756539069604
10
20.654117692016541
20
-2.1166917685674953
0
CIRCLE
5
104
100
AcDbEntity
8
0
100
AcDbCircle
10
14.400000214576721
20
-2
30
0
40
0.5
210
0
220
0
230
1
0
LWPOLYLINE
5
105
100
AcDbEntity
8
0
100
AcDbPolyline
90
6
70
1
43
0.0
10
7.4175990583444857
20
-0.49605855848555586
42
0.37717292980308442
10
14.000000214576721
20
-6.9885620838624618
10
14.000000214576721
20
-6.3885620838624586
10
14.800000214576722
20
-6.3885620838624586
10
14.800000214576722
20
-6.98856208386246
42
0.37717292980308414
10
21.382401370808957
20
-0.49605855848556363
0
CIRCLE
5
106
100
AcDbEntity
8
0
100
AcDbCircle
10
14.400000214576721
20
2
30
0
40
0.5
210
0
220
0
230
1
0
LWPOLYLINE
5
107
100
AcDbEntity
8
0
100
AcDbPolyline
90
4
70
1
43
0.0
10
19.902363595387815
20
1.8430756539069604
10
19.798055598931736
20
2.1243581486970164
10
20.551513523081148
20
2.398594405859404
10
20.654117692016541
20
2.1166917685674953
0
LWPOLYLINE
5
108
100
AcDbEntity
8
0
100
AcDbPolyline
90
4
70
1
43
0.0
10
16.681124919583077
20
5.3356724712753092
10
16.401656319079212
20
5.4447472223977051
10
16.697690672424205
20
6.189910311825507
10
16.976489837433224
20
6.0791504906567688
0
LWPOLYLINE
5
109
100
AcDbEntity
8
0
100
AcDbPolyline
90
4
70
1
43
0.0
10
8.835583237271095
20
1.6462667897969641
10
8.7596903348341701
20
1.3560250502767861
10
7.9851982808799882
20
1.5635495706781311
10
8.0628425762398397
20
1.8533220258789813
0
LWPOLYLINE
5
110
100
AcDbEntity
8
0
100
AcDbPolyline
90
4
70
1
43
0.0
10
11.930601379441701
20
5.2511903444408938
10
11.663330235530019
20
5.1149327368289121
10
11.3034771397475
20
5.8314591617859497
10
11.57156203528133
20
5.9660964566996242
0
LWPOLYLINE
5
111
100
AcDbEntity
8
0
100
AcDbPolyline
90
6
70
1
43
0.0
10
14.000000214576723
20
6.98856208386246
42
0.37717292980308442
10
7.4175990583444857
20
0.49605855848555674
10
21.382401370808953
20
0.49605855848555863
42
0.37717292980308403
10
14.800000214576727
20
6.9885620838624591
10
14.800000214576722
20
6.3885620838624586
10
14.000000214576721
20
6.3885620838624586
0
LWPOLYLINE
5
112
100
AcDbEntity
8
0
100
AcDbPolyline
90
4
70
1
43
0.0
10
-4.6994316677657935
20
4.4872996334098314
10
-4.4872996334098287
20
4.6994316677657961
10
-3.9216142084605914
20
4.1337462428165583
10
-4.1337462428165566
20
3.9216142084605954
0
LWPOLYLINE
5
113
100
AcDbEntity
8
0
100
AcDbPolyline
90
4
70
1
43
0.0
10
-4.4872996334098314
20
-4.6994316677657952
10
-4.6994316677657961
20
-4.4872996334098314
10
-4.1337462428165583
20
-3.9216142084605927
10
-3.9216142084605954
20
-4.1337462428165583
0
LWPOLYLINE
5
114
100
AcDbEntity
8
0
100
AcDbPolyline
90
4
70
1
43
0.0
10
4.6994316677657935
20
-4.4872996334098314
10
4.4872996334098278
20
-4.699431667765797
10
3.9216142084605909
20
-4.1337462428165583
10
4.1337462428165566
20
-3.9216142084605963
0
LWPOLYLINE
5
115
100
AcDbEntity
8
0
100
AcDbPolyline
90
4
70
1
43
0.0
10
4.4872996334098332
20
4.6994316677657926
10
4.699431667765797
20
4.4872996334098278
10
4.1337462428165601
20
3.9216142084605905
10
3.9216142084605963
20
4.1337462428165557
0
LWPOLYLINE
5
116
100
AcDbEntity
8
0
100
AcDbPolyline
90
20
70
1
43
0.0
10
4.3250000000000011
20
-0.5
10
1.4249999999999998
20
-0.5
10
1.4249999999999998
20
-0.625
10
-0.92500000000000027
20
-0.625
10
-0.92500000000000027
20
-0.5
10
-4.3250000000000002
20
-0.5
10
-4.3250000000000002
20
-0.25
10
-5.3250000000000002
20
-0.25
10
-5.3250000000000002
20
0.25
10
-4.3250000000000002
20
0.25
10
-4.3250000000000002
20
0.5
10
-0.92500000000000027
20
0.5
10
-0.92500000000000027
20
0.625
10
1.4249999999999998
20
0.625
10
1.4249999999999998
20
0.5
10
4.3249999999999993
20
0.5
10
4.3249999999999993
20
0.25
10
5.3249999999999993
20
0.25
10
5.3249999999999993
20
-0.25
10
4.3249999999999993
20
-0.25
0
LWPOLYLINE
5
117
100
AcDbEntity
8
0
100
AcDbPolyline
90
8
70
1
43
0.0
10
0.39999999999999875
20
-6.9885620838624591
42
0.94440028160303613
10
0.39999999999999952
20
6.9885620838624591
10
0.40000000000000036
20
6.3885620838624586
10
-0.40000000000000036
20
6.3885620838624586
10
-0.40000000000000036
20
6.98856208386246
42
0.94440028160303424
10
-0.40000000000000518
20
-6.98856208386246
10
-0.40000000000000036
20
-6.3885620838624586
10
0.40000000000000036
20
-6.3885620838624586
0
LWPOLYLINE
5
118
100
AcDbEntity
8
0
100
AcDbPolyline
90
6
70
1
43
0.0
10
4.9500002145767183
20
-8.4999999999999947
10
1.450000214576721
20
-8.5
42
-0.29908116983299754
10
-8.0640396357898627
20
-2.2499999999999982
10
-8.4640396357898595
20
-2.2499999999999982
42
0.3174563686058085
10
1.4500002145767192
20
-9.2499999999999947
10
4.9500002145767183
20
-9.2499999999999947
0
LWPOLYLINE
5
119
100
AcDbEntity
8
0
100
AcDbPolyline
90
6
70
1
43
0.0
10
4.9500002145767183
20
-10.416666666666661
10
4.9500002145767183
20
-9.6666666666666607
10
1.450000214576721
20
-9.6666666666666661
42
-0.29908116983299754
10
-8.0640396357898627
20
-3.4166666666666643
10
-8.4640396357898595
20
-3.4166666666666643
42
0.3174563686058085
10
1.4500002145767192
20
-10.416666666666661
0
LWPOLYLINE
5
120
100
AcDbEntity
8
0
100
AcDbPolyline
90
6
70
1
43
0.0
10
4.9500002145767183
20
-11.583333333333327
10
4.9500002145767183
20
-10.833333333333327
10
1.450000214576721
20
-10.833333333333332
42
-0.29908116983299754
10
-8.0640396357898627
20
-4.5833333333333304
10
-8.4640396357898595
20
-4.5833333333333304
42
0.3174563686058085
10
1.4500002145767183
20
-11.583333333333327
0
LWPOLYLINE
5
121
100
AcDbEntity
8
0
100
AcDbPolyline
90
6
70
1
43
0.0
10
4.9500002145767183
20
-12.749999999999993
10
4.9500002145767183
20
-11.999999999999993
10
1.4500002145767192
20
-11.999999999999998
42
-0.29908116983299798
10
-8.0640396357898627
20
-5.7499999999999973
10
-8.4640396357898595
20
-5.7499999999999973
42
0.3174563686058085
10
1.4500002145767192
20
-12.749999999999995
0
LWPOLYLINE
5
122
100
AcDbEntity
8
0
100
AcDbPolyline
90
6
70
1
43
0.0
10
9.4500000000000028
20
-12.749999999999993
10
12.950000000000003
20
-12.749999999999996
42
0.3174563686058085
10
22.864039850366588
20
-5.7499999999999982
10
22.464039850366582
20
-5.7499999999999964
42
-0.29908116983299771
10
12.950000000000003
20
-11.999999999999996
10
9.4500000000000028
20
-11.999999999999993
0
LWPOLYLINE
5
123
100
AcDbEntity
8
0
100
AcDbPolyline
90
6
70
1
43
0.0
10
9.4500000000000028
20
-11.583333333333327
10
12.950000000000003
20
-11.58333333333333
42
0.3174563686058085
10
22.864039850366588
20
-4.5833333333333313
10
22.464039850366586
20
-4.5833333333333304
42
-0.29908116983299793
10
12.950000000000003
20
-10.833333333333329
10
9.4500000000000028
20
-10.833333333333327
0
LWPOLYLINE
5
124
100
AcDbEntity
8
0
100
AcDbPolyline
90
6
70
1
43
0.0
10
9.4500000000000028
20
-10.416666666666661
10
12.950000000000003
20
-10.416666666666664
42
0.3174563686058085
10
22.864039850366588
20
-3.4166666666666652
10
22.464039850366582
20
-3.4166666666666625
42
-0.29908116983299748
10
12.950000000000003
20
-9.6666666666666643
10
9.4500000000000028
20
-9.6666666666666607
0
LWPOLYLINE
5
125
100
AcDbEntity
8
0
100
AcDbPolyline
90
6
70
1
43
0.0
10
9.4500000000000028
20
-8.4999999999999947
10
9.4500000000000028
20
-9.2499999999999947
10
12.950000000000003
20
-9.2499999999999982
42
0.3174563686058085
10
22.864039850366588
20
-2.2499999999999991
10
22.464039850366582
20
-2.2499999999999969
42
-0.2990811698329976
10
12.950000000000003
20
-8.4999999999999947
0
LWPOLYLINE
5
126
100
AcDbEntity
8
0
100
AcDbPolyline
90
4
70
1
43
0.0
10
8.0000001192092896
20
0.40000000596046448
10
8.0000001192092896
20
-0.40000000596046448
10
8.8928572620664319
20
-0.40000000596046448
10
8.8928572620664319
20
0.40000000596046448
0
LWPOLYLINE
5
127
100
AcDbEntity
8
0
100
AcDbPolyline
90
4
70
1
43
0.0
10
9.785714404923576
20
0.40000000596046448
10
9.785714404923576
20
-0.40000000596046448
10
10.678571547780718
20
-0.40000000596046448
10
10.678571547780718
20
0.40000000596046448
0
LWPOLYLINE
5
128
100
AcDbEntity
8
0
100
AcDbPolyline
90
4
70
1
43
0.0
10
11.571428690637861
20
0.40000000596046448
10
11.571428690637861
20
-0.40000000596046448
10
12.464285833495005
20
-0.40000000596046448
10
12.464285833495005
20
0.40000000596046448
0
LWPOLYLINE
5
129
100
AcDbEntity
8
0
100
AcDbPolyline
90
4
70
1
43
0.0
10
13.357142976352147
20
0.40000000596046448
10
13.357142976352147
20
-0.40000000596046448
10
14.25000011920929
20
-0.40000000596046448
10
14.25000011920929
20
0.40000000596046448
0
LWPOLYLINE
5
130
100
AcDbEntity
8
0
100
AcDbPolyline
90
4
70
1
43
0.0
10
15.142857262066432
20
0.40000000596046448
10
15.142857262066432
20
-0.40000000596046448
10
16.035714404923574
20
-0.40000000596046448
10
16.035714404923574
20
0.40000000596046448
0
LWPOLYLINE
5
131
100
AcDbEntity
8
0
100
AcDbPolyline
90
4
70
1
43
0.0
10
16.92857154778072
20
0.40000000596046448
10
16.92857154778072
20
-0.40000000596046448
10
17.821428690637859
20
-0.40000000596046448
10
17.821428690637859
20
0.40000000596046448
0
LWPOLYLINE
5
132
100
AcDbEntity
8
0
100
AcDbPolyline
90
4
70
1
43
0.0
10
18.714285833495005
20
0.40000000596046448
10
18.714285833495005
20
-0.40000000596046448
10
19.607142976352147
20
-0.40000000596046448
10
19.607142976352147
20
0.40000000596046448
0
LWPOLYLINE
5
133
100
AcDbEntity
8
0
100
AcDbPolyline
90
4
70
1
43
0.0
10
20.50000011920929
20
0.40000000596046448
10
20.50000011920929
20
-0.40000000596046448
10
21.100000314414501
20
-0.40000000596046448
10
21.100000314414501
20
0.40000000596046448
0
ENDSEC
0
SECTION
2
OBJECTS
0
DICTIONARY
5
C
100
AcDbDictionary
3
ACAD_GROUP
350
D
3
ACAD_MLINESTYLE
350
17
0
DICTIONARY
5
D
100
AcDbDictionary
0
DICTIONARY
5
1A
330
C
100
AcDbDictionary
0
DICTIONARY
5
17
100
AcDbDictionary
0
ENDSEC
0
EOF
